<?xml version="1.0" encoding="UTF-8" standalone="no"?>
<!-- Created with Inkscape (http://www.inkscape.org/) -->

<svg
   xmlns:dc="http://purl.org/dc/elements/1.1/"
   xmlns:cc="http://creativecommons.org/ns#"
   xmlns:rdf="http://www.w3.org/1999/02/22-rdf-syntax-ns#"
   xmlns:svg="http://www.w3.org/2000/svg"
   xmlns="http://www.w3.org/2000/svg"
   xmlns:sodipodi="http://sodipodi.sourceforge.net/DTD/sodipodi-0.dtd"
   xmlns:inkscape="http://www.inkscape.org/namespaces/inkscape"
   width="775"
   height="145"
   id="svg3771"
   version="1.1"
   inkscape:version="0.47 r22583"
   sodipodi:docname="Neues Dokument 4">
  <defs
     id="defs3773">
    <inkscape:perspective
       sodipodi:type="inkscape:persp3d"
       inkscape:vp_x="0 : 526.18109 : 1"
       inkscape:vp_y="0 : 1000 : 0"
       inkscape:vp_z="744.09448 : 526.18109 : 1"
       inkscape:persp3d-origin="372.04724 : 350.78739 : 1"
       id="perspective3779" />
    <inkscape:perspective
       id="perspective3755"
       inkscape:persp3d-origin="0.5 : 0.33333333 : 1"
       inkscape:vp_z="1 : 0.5 : 1"
       inkscape:vp_y="0 : 1000 : 0"
       inkscape:vp_x="0 : 0.5 : 1"
       sodipodi:type="inkscape:persp3d" />
  </defs>
  <sodipodi:namedview
     id="base"
     pagecolor="#ffffff"
     bordercolor="#666666"
     borderopacity="1.0"
     inkscape:pageopacity="0.0"
     inkscape:pageshadow="2"
     inkscape:zoom="0.84305376"
     inkscape:cx="387.5"
     inkscape:cy="73.686164"
     inkscape:document-units="px"
     inkscape:current-layer="layer1"
     showgrid="false"
     inkscape:window-width="1024"
     inkscape:window-height="749"
     inkscape:window-x="-4"
     inkscape:window-y="-4"
     inkscape:window-maximized="1" />
  <metadata
     id="metadata3776">
    <rdf:RDF>
      <cc:Work
         rdf:about="">
        <dc:format>image/svg+xml</dc:format>
        <dc:type
           rdf:resource="http://purl.org/dc/dcmitype/StillImage" />
        <dc:title></dc:title>
      </cc:Work>
    </rdf:RDF>
  </metadata>
  <g
     inkscape:label="Ebene 1"
     inkscape:groupmode="layer"
     id="layer1"
     transform="translate(28.690535,-440.92534)">
    <g
       transform="matrix(0.79829972,0,0,0.79829972,-479.75487,498.28387)"
       id="g3734">
      <path
         id="path2570"
         d="m 626.68377,105.79702 0,-165.960543 -58.07343,0 0,165.960543 58.07343,0 z"
         style="fill:#006598;fill-opacity:1;fill-rule:nonzero;stroke:none" />
      <path
         id="path2572"
         d="m 734.57137,105.79702 58.07343,0 0,-165.960543 -58.07343,0 0,165.960543 z"
         style="fill:#006598;fill-opacity:1;fill-rule:nonzero;stroke:none" />
      <path
         id="path2574"
         d="m 924.01982,105.79702 0,-165.960543 -58.07343,0 0,165.960543 58.07343,0 z"
         style="fill:#006598;fill-opacity:1;fill-rule:nonzero;stroke:none" />
      <path
         id="path2576"
         d="m 826.45644,-63.519416 -2.58102,0.258605 -2.83914,0.515743 -2.58102,1.032883 -2.32294,0.774349 -2.58102,1.290022 -2.32298,1.290789 -2.06478,1.806464 -2.06486,1.548661 -1.80675,2.065104 -1.8067,2.065068 -1.5487,2.06437 -1.29044,2.32294 -1.29055,2.322975 -0.77434,2.580812 -0.77428,2.581579 -0.77435,2.838649 -0.25791,2.58158 -0.25825,3.097288 0.25825,2.838684 0.25791,2.581544 0.77435,2.838684 0.77428,2.58151 0.77434,2.580846 1.29055,2.322975 1.29044,2.32294 1.5487,2.322975 1.8067,2.0643357 1.80675,1.8072314 2.06486,1.5486616 2.06478,1.5486266 2.32298,1.5486267 2.58102,1.29002205 2.32294,0.77434824 2.58102,1.03291801 2.83914,0.5157087 2.58102,0.2586046 3.09732,0.2579067 2.58103,-0.2579067 2.8391,-0.2586046 2.8392,-0.5157087 2.58103,-1.03291801 2.58105,-0.77434824 2.32298,-1.29002205 2.3229,-1.5486267 2.06483,-1.5486266 2.06478,-1.5486616 1.80678,-1.8072314 1.80671,-2.0643357 1.54866,-2.322975 1.29048,-2.32294 1.29054,-2.322975 1.03243,-2.580846 0.77432,-2.58151 0.51616,-2.838684 0.51623,-2.581544 0,-2.838684 0,-3.097288 -0.51623,-2.58158 -0.51616,-2.838649 -0.77432,-2.581579 -1.03243,-2.580812 -1.29054,-2.322975 -1.29048,-2.32294 -1.54866,-2.06437 -1.80671,-2.065068 -1.80678,-2.065104 -2.06478,-1.548661 -2.06483,-1.806464 -2.3229,-1.290789 -2.32298,-1.290022 -2.58105,-0.774349 -2.58103,-1.032883 -2.8392,-0.515743 -2.8391,-0.258605 -2.58103,-0.257907 -3.09732,0.257907 z"
         style="fill:#006598;fill-opacity:1;fill-rule:nonzero;stroke:none" />
      <path
         id="path2578"
         d="m 994.99856,27.33371 -0.77438,-3.097218 0,-2.839452 0.77438,-2.839381 1.5486,-3.096556 0,-0.258604 0.51616,-0.774349 0.77435,-1.290022 1.03246,-1.548626 1.03239,-1.8072666 1.54868,-2.32294 1.5485,-2.5808118 1.5486,-2.8394165 1.8067,-3.0972534 2.0649,-3.0972883 2.0649,-3.6129969 2.3229,-3.3558585 2.323,-3.871601 2.0647,-3.613032 2.323,-3.871567 2.3229,-3.61373 2.323,-3.871566 2.3229,-3.613032 2.0649,-3.613765 2.0648,-3.355125 2.0648,-3.355858 1.8067,-3.097288 1.8068,-2.838684 1.5486,-2.580812 1.2906,-2.065103 1.2905,-2.065103 1.0324,-1.548627 0.5162,-1.290022 0.5163,-0.516476 0.2579,-0.257907 -64.00982,0 -0.25826,0.257907 -0.2579,0.516476 -0.77432,1.290022 -1.03243,1.29079 -1.03239,2.065103 -1.29058,2.064371 -1.54859,2.32294 -1.54863,2.839416 -1.80671,2.838684 -2.06482,3.097253 -2.06486,3.355858 -2.06482,3.355195 -2.06486,3.613695 -2.06479,3.613032 -2.32294,3.61373 -2.06483,3.613729 -2.32297,3.612997 -2.06483,3.355126 -2.06485,3.6137293 -2.06476,3.0972883 -2.06489,3.3551252 -1.80671,2.83941646 -1.54863,2.83941644 -1.54866,2.3229401 -1.29044,2.3229749 -1.29058,1.8064636 -0.77435,1.5486617 -0.77428,1.032185 -1.54855,3.097253 -1.29058,3.097289 -0.77432,2.580811 0,2.581545 0,2.838684 1.03236,2.581544 1.03254,3.097289 1.80671,3.355125 0.77431,1.032185 0.77431,1.548627 1.29048,1.807231 1.29054,2.322975 1.54856,2.32294 1.54866,2.838684 1.80671,2.839416 1.80681,3.097253 2.06476,3.355126 2.06485,3.613729 2.06483,3.355126 2.32297,3.613729 2.32287,3.613032 2.0649,3.61373 2.06479,3.61373 2.32297,3.355125 2.06483,3.35516 1.80674,3.355125 2.06482,3.097254 1.80671,2.839416 1.54863,2.839417 1.54859,2.32294 1.29058,2.064373 1.03239,2.0651 1.03243,1.29075 0.77432,1.29006 0.2579,0.51648 0.25826,0.25791 64.00982,0 -45.94257,-75.366027 -1.80671,-3.097288 z"
         style="fill:#006598;fill-opacity:1;fill-rule:nonzero;stroke:none" />
      <path
         id="path2580"
         d="m 730.69981,105.53918 0,-0.51647 -0.25826,-0.77432 -0.25791,-1.03218 -0.25825,-1.54866 -0.25826,-1.806467 -0.51623,-1.807231 -0.51616,-2.322975 -0.51623,-2.32294 -0.51613,-2.838684 -0.77438,-2.839416 -0.77428,-3.097289 -0.51627,-3.097253 -0.77428,-3.355125 -0.77435,-3.61373 -1.03239,-3.613032 -0.77431,-3.871566 -0.77432,-3.871567 -1.03239,-4.130206 -0.77432,-4.129439 -1.03242,-4.129473 -0.77432,-4.129474 -1.03243,-4.130171 -1.03243,-4.38731 -1.03239,-4.388044 -0.77435,-4.129473 -1.03239,-4.388008 -0.77428,-4.129474 -1.03243,-3.871601 -1.0324,-4.129439 -0.77431,-4.130206 -1.03239,-3.8716017 -0.77432,-3.8715667 -0.77435,-3.6129969 -0.77427,-3.6137647 -0.77432,-3.3551252 -0.77438,-3.0972538 -0.77428,-3.097288 -0.51623,-3.097288 -0.5162,-2.580777 -0.5162,-2.322975 -0.51612,-2.32294 -0.51624,-2.065103 -0.51626,-1.548627 -0.25826,-1.548626 -0.25825,-1.032186 0,-0.774313 -0.25826,-0.516476 0,-0.257907 -0.77424,-2.839451 -0.77428,-2.580777 -1.0325,-2.58158 -1.54856,-2.580812 -1.54866,-2.322975 -1.54863,-2.32294 -2.06482,-1.806463 -2.06482,-2.065103 -2.0649,-1.548662 -2.3229,-1.548627 -2.58102,-1.290057 -2.58106,-1.032918 -2.58109,-1.032185 -2.8391,-0.516441 -3.09726,-0.515709 -2.83913,0 -0.77432,0 -2.06482,0 -3.09729,0 -3.8716,0 -4.12961,0 -4.90393,0 -4.38787,0 -4.38776,0 -3.8715,0 -3.09729,0 -2.06482,0 -0.77435,0 37.6832,165.960548 63.23561,0 0,0 -0.25825,-0.25791 z"
         style="fill:#006598;fill-opacity:1;fill-rule:nonzero;stroke:none" />
      <path
         id="path2582"
         d="m 1082.2378,-16.543825 24.0036,0 0,0 0,122.340845 58.3316,0 0,-165.960543 -82.3352,0 0,43.619698 z"
         style="fill:#006598;fill-opacity:1;fill-rule:nonzero;stroke:none" />
      <g
         style="fill:#006598;fill-opacity:1;stroke:#006598;stroke-opacity:1"
         transform="translate(1.8102449,-694.22615)"
         id="g3658">
        <path
           id="path2874"
           style="font-size:150.75067139px;font-style:normal;font-variant:normal;font-weight:bold;font-stretch:normal;text-align:start;line-height:100%;writing-mode:lr-tb;text-anchor:start;fill:#006598;fill-opacity:1;stroke:#006598;stroke-width:4.4000001;stroke-miterlimit:4;stroke-opacity:1;stroke-dasharray:none;font-family:Segoe Media Center Semibold;-inkscape-font-specification:Segoe Media Center Semibold Bold"
           d="m 1362.9431,769.94813 0,-45.74405 -47.5883,0 0,45.74405 -16.9045,0 0,-105.63119 16.9045,0 0,44.41814 47.5883,0 0,-44.41814 16.9755,0 0,105.63119 z" />
        <path
           id="path2876"
           style="font-size:150.75067139px;font-style:normal;font-variant:normal;font-weight:bold;font-stretch:normal;text-align:start;line-height:100%;writing-mode:lr-tb;text-anchor:start;fill:#006598;fill-opacity:1;stroke:#006598;stroke-width:4.4000001;stroke-miterlimit:4;stroke-opacity:1;stroke-dasharray:none;font-family:Segoe Media Center Semibold;-inkscape-font-specification:Segoe Media Center Semibold Bold"
           d="m 1402.6251,769.98294 0,-105.70081 30.44,0 c 17.5905,10e-5 30.7834,4.29988 39.5788,12.89933 8.7952,8.59964 13.1929,21.47439 13.193,38.62429 -10e-5,16.41289 -4.8902,29.54563 -14.6703,39.39824 -9.7802,9.85264 -22.7327,14.77895 -38.8574,14.77895 z m 16.3537,-90.59017 0,75.47952 13.193,0 c 11.4521,2e-5 20.3734,-3.4398 26.7639,-10.31946 6.3902,-6.87962 9.5854,-16.36369 9.5855,-28.45224 -10e-5,-11.84275 -3.1381,-20.92142 -9.4138,-27.23602 -6.2759,-6.31444 -15.1628,-9.4717 -26.6608,-9.4718 z" />
      </g>
      <path
         id="rect3662"
         d="m 1243.2057,-61.8251 0,168.03125 288.5,0 0,-168.03125 -288.5,0 z m 18,17.96875 252.5,0 0,132.0625 -252.5,0 c 10e-5,-44.02083 0,-88.04167 0,-132.0625 z"
         style="fill:#006598;fill-opacity:1;stroke:none" />
    </g>
  </g>
</svg>
