<?xml version="1.0" encoding="UTF-8" standalone="no"?>
<!-- Created with Inkscape (http://www.inkscape.org/) -->

<svg
   xmlns:dc="http://purl.org/dc/elements/1.1/"
   xmlns:cc="http://creativecommons.org/ns#"
   xmlns:rdf="http://www.w3.org/1999/02/22-rdf-syntax-ns#"
   xmlns:svg="http://www.w3.org/2000/svg"
   xmlns="http://www.w3.org/2000/svg"
   xmlns:sodipodi="http://sodipodi.sourceforge.net/DTD/sodipodi-0.dtd"
   xmlns:inkscape="http://www.inkscape.org/namespaces/inkscape"
   width="775"
   height="145"
   id="svg3771"
   version="1.1"
   inkscape:version="0.48.0 r9654"
   sodipodi:docname="NRK_1_HD_Logo.svg">
  <defs
     id="defs3773">
    <inkscape:perspective
       sodipodi:type="inkscape:persp3d"
       inkscape:vp_x="0 : 526.18109 : 1"
       inkscape:vp_y="0 : 1000 : 0"
       inkscape:vp_z="744.09448 : 526.18109 : 1"
       inkscape:persp3d-origin="372.04724 : 350.78739 : 1"
       id="perspective3779" />
    <inkscape:perspective
       id="perspective3755"
       inkscape:persp3d-origin="0.5 : 0.33333333 : 1"
       inkscape:vp_z="1 : 0.5 : 1"
       inkscape:vp_y="0 : 1000 : 0"
       inkscape:vp_x="0 : 0.5 : 1"
       sodipodi:type="inkscape:persp3d" />
    <inkscape:perspective
       sodipodi:type="inkscape:persp3d"
       inkscape:vp_x="0 : 0.5 : 1"
       inkscape:vp_y="0 : 1000 : 0"
       inkscape:vp_z="1 : 0.5 : 1"
       inkscape:persp3d-origin="0.5 : 0.33333333 : 1"
       id="perspective2873" />
    <inkscape:perspective
       id="perspective2893"
       inkscape:persp3d-origin="372.04724 : 350.78739 : 1"
       inkscape:vp_z="744.09448 : 526.18109 : 1"
       inkscape:vp_y="0 : 1000 : 0"
       inkscape:vp_x="0 : 526.18109 : 1"
       sodipodi:type="inkscape:persp3d" />
  </defs>
  <sodipodi:namedview
     id="base"
     pagecolor="#ffffff"
     bordercolor="#666666"
     borderopacity="1.0"
     inkscape:pageopacity="0.0"
     inkscape:pageshadow="2"
     inkscape:zoom="1.4142136"
     inkscape:cx="280.33682"
     inkscape:cy="42.194888"
     inkscape:document-units="px"
     inkscape:current-layer="layer1"
     showgrid="false"
     inkscape:window-width="1680"
     inkscape:window-height="1030"
     inkscape:window-x="-8"
     inkscape:window-y="-8"
     inkscape:window-maximized="1" />
  <metadata
     id="metadata3776">
    <rdf:RDF>
      <cc:Work
         rdf:about="">
        <dc:format>image/svg+xml</dc:format>
        <dc:type
           rdf:resource="http://purl.org/dc/dcmitype/StillImage" />
        <dc:title />
      </cc:Work>
    </rdf:RDF>
  </metadata>
  <g
     inkscape:label="Ebene 1"
     inkscape:groupmode="layer"
     id="layer1"
     transform="translate(28.690535,-440.92534)">
    <g
       id="g3658"
       transform="matrix(0.79829972,0,0,0.79829972,-478.30975,-55.916671)"
       style="fill:#52a926;fill-opacity:1;stroke:#52a926;stroke-opacity:1">
      <path
         id="path2876"
         style="font-size:150.75067139000001000px;font-style:normal;font-variant:normal;font-weight:bold;font-stretch:normal;text-align:start;line-height:100%;writing-mode:lr-tb;text-anchor:start;fill:#52a926;fill-opacity:1;stroke:#52a926;stroke-width:4.40000009999999970;stroke-miterlimit:4;stroke-opacity:1;stroke-dasharray:none;font-family:Segoe Media Center Semibold;-inkscape-font-specification:Segoe Media Center Semibold Bold"
         d="m 1402.6251,769.98294 0,-105.70081 30.44,0 c 17.5905,10e-5 30.7834,4.29988 39.5788,12.89933 8.7952,8.59964 13.1929,21.47439 13.193,38.62429 -10e-5,16.41289 -4.8902,29.54563 -14.6703,39.39824 -9.7802,9.85264 -22.7327,14.77895 -38.8574,14.77895 z m 16.3537,-90.59017 0,75.47952 13.193,0 c 11.4521,2e-5 20.3734,-3.4398 26.7639,-10.31946 6.3902,-6.87962 9.5854,-16.36369 9.5855,-28.45224 -10e-5,-11.84275 -3.1381,-20.92142 -9.4138,-27.23602 -6.2759,-6.31444 -15.1628,-9.4717 -26.6608,-9.4718 z m -56.0357,90.55536 0,-45.74405 -47.5883,0 0,45.74405 -16.9045,0 0,-105.63119 16.9045,0 0,44.41814 47.5883,0 0,-44.41814 16.9755,0 0,105.63119 z" />
    </g>
    <path
       id="path3053"
       style="fill:#52a926;fill-opacity:1;fill-rule:evenodd;stroke:none"
       d="m 380.83937,450.49878 102.39241,0 -24.93688,37.03874 c 0,0 -2.64483,1.1455 0.75564,2.67285 3.40051,1.5274 30.22658,17.5648 27.20392,46.58476 -3.02268,29.02012 -26.82606,45.82116 -50.25166,45.82116 -23.42555,0 -55.16343,0 -55.16343,0 l 0,-34.36582 58.18609,0 c 0,0 7.46433,-0.34938 10.9504,-6.18858 4.12155,-6.90358 3.43387,-19.65811 -10.9504,-22.44962 -0.31277,-0.0606 -36.27185,0 -36.27185,0 l 24.93692,-35.89322 -46.09551,0 z m -277.07102,132.03663 -0.20609,-0.41227 -0.20609,-0.82397 -0.20609,-0.82399 -0.20609,-1.23627 -0.4121,-1.44272 -0.20609,-1.8544 -0.61814,-1.85445 -0.41212,-2.06023 -0.41204,-2.26673 -0.61811,-2.47252 -0.618157,-2.67841 -0.618133,-2.67842 -0.618132,-2.88482 -0.618161,-3.09069 -0.824139,-3.09069 -0.61816,-3.29656 -0.824167,-3.2965 -0.618133,-3.50299 -0.824139,-3.29655 -0.824252,-3.50296 -0.824167,-3.5024 -0.824139,-3.70882 -0.824167,-3.50299 -0.618133,-3.50295 -0.824252,-3.50239 -0.824139,-3.503 -0.824166,-3.29652 -0.618133,-3.50299 -0.824195,-3.29652 -0.824168,-3.29659 -0.618132,-3.09067 -0.618076,-3.09069 -0.618189,-2.88482 -0.618104,-2.67839 -0.618132,-2.67899 -0.618161,-2.47196 -0.412041,-2.2667 -0.618161,-2.0603 -0.412098,-2.06085 -0.412097,-1.64797 -0.206092,-1.44269 -0.206091,-1.23627 -0.412126,-1.02986 0,-0.61813 -0.206092,-0.4123 0,-0.20581 -0.618104,-2.26669 -0.824167,-2.47253 -1.030258,-2.06026 -1.030202,-2.06086 -1.442357,-2.06027 -1.442298,-1.85439 -1.648307,-1.648 -1.854426,-1.44269 -1.854397,-1.44213 -2.266495,-1.23632 -2.060431,-0.82394 -2.266467,-0.82462 -2.472531,-0.61808 -2.472557,-0.41173 -2.472559,0 -0.618074,0 -1.854427,0 -2.884655,0 -3.502761,0 -4.120834,0 -3.914886,0 -3.914858,0 -3.502761,0 -2.88457,0 -1.854426,0 -0.824138,0 30.082454,132.48615 50.480886,0 0,0 0,-0.20581 z m 210.5773,-63.04943 -0.61813,-3.0907 0.41203,-2.67896 1.64842,-3.09012 0,-0.20638 0.41205,-0.6181 0.61813,-1.02983 0.82425,-1.44275 1.03018,-1.44213 1.03023,-2.06024 1.44232,-2.06085 1.4423,-2.47256 1.64828,-2.47253 1.64842,-2.88427 1.64834,-2.88482 1.85442,-2.88483 1.85436,-3.09012 2.06049,-3.09069 1.85439,-3.0907 1.85434,-3.29715 1.8544,-2.88422 1.85446,-3.09069 1.6483,-2.88483 1.85443,-2.67842 1.4423,-2.67896 1.4423,-2.26614 1.44236,-2.26669 1.23621,-1.8544 0.82422,-1.64802 0.82416,-1.44267 0.61814,-0.82399 0.41207,-0.61813 0.2061,-0.20581 -51.09899,0 -0.2061,0.20581 -0.4121,0.41226 -0.6181,1.02986 -0.82416,1.23624 -0.8242,1.64859 -1.23626,1.8544 -1.23624,2.06028 -1.23629,2.26667 -1.64839,2.47256 -1.64834,2.6784 -1.64837,2.67842 -1.6483,2.88483 -1.85446,3.09069 -1.8544,2.88482 -1.85436,3.09072 -1.8544,2.88424 -1.64837,2.88485 -1.85438,2.88423 -1.64836,2.88485 -1.64836,2.6784 -1.44227,2.47256 -1.44231,2.26667 -1.23626,2.06029 -1.23627,1.85439 -0.82419,1.44273 -0.82426,1.44215 -0.6181,0.82395 -1.44232,2.88485 -1.03018,2.67839 -0.61811,2.26667 0.2061,2.47259 0.41212,2.67842 1.23629,2.47253 1.44231,3.09069 0.61813,0.824 0.61813,1.44269 1.03017,1.44213 1.03029,1.85444 1.4423,2.06026 1.23627,2.26672 1.64833,2.47253 1.64839,2.88425 1.64834,2.67899 1.64833,2.6784 1.85442,3.09067 1.85437,2.88485 1.64834,3.09069 1.85439,2.88426 1.85446,2.88482 1.6483,2.88427 1.64836,2.67896 1.64834,2.67839 1.64839,2.47259 1.23629,2.26669 1.23624,2.06026 1.23627,1.85443 0.82419,1.64853 0.82417,1.23632 0.6181,0.82397 0.4121,0.6181 0.20609,0.20581 51.09899,0 -36.6759,-60.1646 -1.64837,-3.09069 z m -56.66221,63.25529 0,-132.48613 -46.35996,0 0,132.48613 z m -151.03052,0 46.36002,0 0,-132.48613 -46.36002,0 z m -86.126496,0 0,-132.48613 -46.359959,0 0,132.48613 z m 492.169466,-133.81236 0,134.1393 230.30947,0 0,-134.1393 z m 14.3694,14.34445 201.57068,0 0,105.42545 -201.57068,0 c 8e-5,-35.14181 0,-70.28364 0,-105.42545 z m -318.12398,10.47479 c 0,14.67707 -11.89812,26.57519 -26.5752,26.57519 -14.67708,0 -26.57519,-11.89812 -26.57519,-26.57519 0,-14.67708 11.89811,-26.5752 26.57519,-26.5752 14.67708,0 26.5752,11.89812 26.5752,26.5752 z" />
  </g>
</svg>
