<?xml version="1.0" encoding="UTF-8" standalone="no"?>
<!-- Created with Inkscape (http://www.inkscape.org/) -->

<svg
   xmlns:dc="http://purl.org/dc/elements/1.1/"
   xmlns:cc="http://creativecommons.org/ns#"
   xmlns:rdf="http://www.w3.org/1999/02/22-rdf-syntax-ns#"
   xmlns:svg="http://www.w3.org/2000/svg"
   xmlns="http://www.w3.org/2000/svg"
   xmlns:sodipodi="http://sodipodi.sourceforge.net/DTD/sodipodi-0.dtd"
   xmlns:inkscape="http://www.inkscape.org/namespaces/inkscape"
   width="216.25877"
   height="570.86694"
   id="svg3055"
   version="1.1"
   inkscape:version="0.48.4 r9939"
   sodipodi:docname="New document 4">
  <defs
     id="defs3057" />
  <sodipodi:namedview
     id="base"
     pagecolor="#ffffff"
     bordercolor="#666666"
     borderopacity="1.0"
     inkscape:pageopacity="0.0"
     inkscape:pageshadow="2"
     inkscape:zoom="0.35"
     inkscape:cx="108.12939"
     inkscape:cy="285.43346"
     inkscape:document-units="px"
     inkscape:current-layer="layer1"
     showgrid="false"
     fit-margin-top="0"
     fit-margin-left="0"
     fit-margin-right="0"
     fit-margin-bottom="0"
     inkscape:window-width="499"
     inkscape:window-height="442"
     inkscape:window-x="128"
     inkscape:window-y="128"
     inkscape:window-maximized="0" />
  <metadata
     id="metadata3060">
    <rdf:RDF>
      <cc:Work
         rdf:about="">
        <dc:format>image/svg+xml</dc:format>
        <dc:type
           rdf:resource="http://purl.org/dc/dcmitype/StillImage" />
        <dc:title></dc:title>
      </cc:Work>
    </rdf:RDF>
  </metadata>
  <g
     inkscape:label="Layer 1"
     inkscape:groupmode="layer"
     id="layer1"
     transform="translate(-266.87061,-246.92872)">
    <g
       transform="translate(-136.90451,246.88816)"
       id="g3038">
      <path
         d="m 462.49589,106.02037 c -35.78976,0 -58.71876,30.98756 -58.71876,61.58276 l 0,143.21573 c -0.3294,27.98432 39.966,27.98432 40.10064,0 l 0,-131.75848 10.02512,0 0,363.76815 c -0.62156,37.98085 53.04736,36.89241 52.99008,0 l 0,-211.95947 8.593,0 0,211.95947 c 0.70176,36.89241 54.65136,37.98085 54.4222,0 l 0,-363.76815 10.02516,0 0,131.75848 c -0.4726,28.19916 39.61368,28.19916 40.10056,0 l 0,-143.21573 c -0.5728,-30.5952 -24.36108,-61.03424 -60.15084,-61.58276 l -97.38716,0 z"
         id="path10"
         inkscape:connector-curvature="0"
         style="fill:#000000" />
      <circle
         d="m 558.45067,46.58577 c 0,25.70621 -20.839,46.545211 -46.54521,46.545211 -25.70621,0 -46.54522,-20.839001 -46.54522,-46.545211 0,-25.706211 20.83901,-46.54521214 46.54522,-46.54521214 25.70621,0 46.54521,20.83900114 46.54521,46.54521214 z"
         cx="511.90546"
         cy="46.58577"
         r="46.545212"
         id="circle12"
         sodipodi:cx="511.90546"
         sodipodi:cy="46.58577"
         sodipodi:rx="46.545212"
         sodipodi:ry="46.545212"
         style="fill:#000000" />
    </g>
  </g>
</svg>
