<?xml version="1.0" encoding="UTF-8" standalone="no"?>
<svg
   xmlns:svg="http://www.w3.org/2000/svg"
   xmlns="http://www.w3.org/2000/svg"
   version="1.0"
   width="620"
   height="572">
<g fill="#000000">
    <circle cx="130.95011" cy="46.58577" r="46.54521"/>
    <path
       d="M 124.50539,388.15534 L 124.50539,549.98933 C 124.26193,579.39154 80.494976,579.39154 80.108304,549.98933 L 80.108304,388.15534 L 22.821751,388.15534 L 84.404788,171.89962 L 74.379644,171.89962 L 38.57554,295.0651 C 29.524278,322.30474 -7.3109962,311.27714 1.3392857,282.17574 L 41.43986,148.98509 C 46.051436,133.68965 65.32836,106.68061 98.726432,106.02037 L 128.80188,106.02037 L 128.80188,106.02037 L 163.17384,106.02037 C 195.6095,106.68061 214.96663,133.91881 220.46041,148.98509 L 260.56101,282.17574 C 268.69571,311.1339 232.15259,323.02082 223.32473,295.0651 L 187.52063,171.89962 L 176.06331,171.89962 L 239.07855,388.15534 L 180.3598,388.15534 L 180.3598,549.98933 C 180.8181,579.39154 137.22302,579.2483 137.39487,549.98933 L 137.39487,388.15534 L 124.50539,388.15534 z "/>
    <path
       d="M 462.49589,106.02037 C 426.70613,106.02037 403.77713,137.00793 403.77713,167.60313 L 403.77713,310.81886 C 403.44773,338.80318 443.74313,338.80318 443.87777,310.81886 L 443.87777,179.06038 L 453.90289,179.06038 L 453.90289,542.82853 C 453.28133,580.80938 506.95025,579.72094 506.89297,542.82853 L 506.89297,330.86906 L 515.48597,330.86906 L 515.48597,542.82853 C 516.18773,579.72094 570.13733,580.80938 569.90817,542.82853 L 569.90817,179.06038 L 579.93333,179.06038 L 579.93333,310.81886 C 579.46073,339.01802 619.54701,339.01802 620.03389,310.81886 L 620.03389,167.60313 C 619.46109,137.00793 595.67281,106.56889 559.88305,106.02037 L 462.49589,106.02037 z "/>
    <circle cx="511.90545" cy="46.58577" r="46.54521"/>
    <rect x="297.79132" y="5.7684445" width="52.996765" height="562.84003"/>
</g>
</svg>
