<?xml version="1.0" encoding="UTF-8" standalone="no"?>
<!-- Created with Inkscape (http://www.inkscape.org/) -->

<svg
   xmlns:dc="http://purl.org/dc/elements/1.1/"
   xmlns:cc="http://creativecommons.org/ns#"
   xmlns:rdf="http://www.w3.org/1999/02/22-rdf-syntax-ns#"
   xmlns:svg="http://www.w3.org/2000/svg"
   xmlns="http://www.w3.org/2000/svg"
   xmlns:sodipodi="http://sodipodi.sourceforge.net/DTD/sodipodi-0.dtd"
   xmlns:inkscape="http://www.inkscape.org/namespaces/inkscape"
   width="261.69971"
   height="572.00043"
   id="svg3019"
   version="1.1"
   inkscape:version="0.48.4 r9939"
   sodipodi:docname="New document 2">
  <defs
     id="defs3021" />
  <sodipodi:namedview
     id="base"
     pagecolor="#ffffff"
     bordercolor="#666666"
     borderopacity="1.0"
     inkscape:pageopacity="0.0"
     inkscape:pageshadow="2"
     inkscape:zoom="0.35"
     inkscape:cx="48.707002"
     inkscape:cy="48.857358"
     inkscape:document-units="px"
     inkscape:current-layer="layer1"
     showgrid="false"
     fit-margin-top="0"
     fit-margin-left="0"
     fit-margin-right="0"
     fit-margin-bottom="0"
     inkscape:window-width="856"
     inkscape:window-height="734"
     inkscape:window-x="210"
     inkscape:window-y="123"
     inkscape:window-maximized="0" />
  <metadata
     id="metadata3024">
    <rdf:RDF>
      <cc:Work
         rdf:about="">
        <dc:format>image/svg+xml</dc:format>
        <dc:type
           rdf:resource="http://purl.org/dc/dcmitype/StillImage" />
        <dc:title></dc:title>
      </cc:Work>
    </rdf:RDF>
  </metadata>
  <g
     inkscape:label="Layer 1"
     inkscape:groupmode="layer"
     id="layer1"
     transform="translate(-326.293,-9.2191107)">
    <g
       transform="translate(326.25911,9.1785528)"
       id="g3002">
      <circle
         d="m 177.49532,46.58577 c 0,25.70621 -20.83901,46.545211 -46.54522,46.545211 -25.70621,0 -46.545208,-20.839001 -46.545208,-46.545211 0,-25.706211 20.838998,-46.54521214 46.545208,-46.54521214 25.70621,0 46.54522,20.83900114 46.54522,46.54521214 z"
         cx="130.9501"
         cy="46.58577"
         r="46.545212"
         id="circle6"
         sodipodi:cx="130.9501"
         sodipodi:cy="46.58577"
         sodipodi:rx="46.545212"
         sodipodi:ry="46.545212"
         style="fill:#000000" />
      <path
         d="m 124.50539,388.15534 0,161.83399 c -0.24346,29.40221 -44.010414,29.40221 -44.397086,0 l 0,-161.83399 -57.286553,0 61.583037,-216.25572 -10.025144,0 L 38.57554,295.0651 C 29.524278,322.30474 -7.3109962,311.27714 1.3392857,282.17574 L 41.43986,148.98509 c 4.611576,-15.29544 23.8885,-42.30448 57.286572,-42.96472 l 30.075448,0 0,0 34.37196,0 c 32.43566,0.66024 51.79279,27.89844 57.28657,42.96472 l 40.1006,133.19065 c 8.1347,28.95816 -28.40842,40.84508 -37.23628,12.88936 l -35.8041,-123.16548 -11.45732,0 63.01524,216.25572 -58.71875,0 0,161.83399 c 0.4583,29.40221 -43.13678,29.25897 -42.96493,0 l 0,-161.83399 -12.88948,0 z"
         id="path8"
         inkscape:connector-curvature="0"
         style="fill:#000000" />
    </g>
  </g>
</svg>
